<?xml version="1.0" encoding="utf-8"?>
<!-- Generator: Adobe Illustrator 25.2.1, SVG Export Plug-In . SVG Version: 6.00 Build 0)  -->
<svg version="1.1" id="Layer_1" focusable="false" xmlns="http://www.w3.org/2000/svg" xmlns:xlink="http://www.w3.org/1999/xlink"
	 x="0px" y="0px" viewBox="0 0 640 512" style="enable-background:new 0 0 640 512;" xml:space="preserve">
<style type="text/css">
	.st0{fill:#F73859;}
</style>
<path class="st0" d="M32.5,147.9L64,256L32.5,364.1c-2.1,8.6,3.1,17.3,11.7,19.4c1.3,0.3,2.6,0.5,3.9,0.5h40c5,0,9.8-2.4,12.8-6.4
	L144,320h102.9l-49,171.6c-2.4,8.5,2.5,17.4,11,19.8c1.4,0.4,2.9,0.6,4.4,0.6h65.5c5.7,0,11-3.1,13.9-8.1l66.6-116.5L34.3,136.3
	C32.2,139.8,31.6,143.9,32.5,147.9z M633.8,458.1L455.1,320H512c35.3,0,96-28.7,96-64s-60.7-64-96-64H397.7L292.6,8.1
	c-2.5-4.5-8.8-8.1-13.9-8.1h-65.5c-8.8,0-16,7.2-16,16c0,1.5,0.2,3,0.6,4.4l36.9,129.3L45.5,3.4c-7-5.4-17-4.2-22.5,2.8c0,0,0,0,0,0
	L3.4,31.5c-5.4,7-4.2,17,2.8,22.5c0,0,0,0,0,0l588.4,454.7c7,5.4,17,4.2,22.5-2.8c0,0,0,0,0,0l19.6-25.3
	C642.1,473.6,640.8,463.5,633.8,458.1C633.8,458.1,633.8,458.1,633.8,458.1z"/>
</svg>
